<?xml version="1.0" encoding="UTF-8"?>
<svg version="1.1" xmlns="http://www.w3.org/2000/svg" width="200" height="199">
<path d="M0 0 C0.99 0 1.98 0 3 0 C3 17.49 3 34.98 3 53 C3.99 53 4.98 53 6 53 C6 49.7 6 46.4 6 43 C8.47923801 42.97314905 10.9581884 42.95323453 13.4375 42.9375 C14.14455078 42.92912109 14.85160156 42.92074219 15.58007812 42.91210938 C17.38693559 42.90346412 19.19387603 42.94779989 21 43 C22 44 22 44 22.09765625 46.06640625 C22.08605469 46.89011719 22.07445313 47.71382812 22.0625 48.5625 C22.05347656 49.38878906 22.04445313 50.21507812 22.03515625 51.06640625 C22.02355469 51.70449219 22.01195313 52.34257813 22 53 C23.98 52.67 25.96 52.34 28 52 C28.05648579 49.17571071 28.04274231 47.56794747 27 45 C24.28259641 42.53678561 21.16788413 40.82613504 18 39 C16.36578425 37.97285185 14.74033698 36.93158927 13.125 35.875 C12.40570313 35.41867188 11.68640625 34.96234375 10.9453125 34.4921875 C7.7947348 32.0754793 6.25128687 29.75386061 5 26 C4.49527714 19.81714496 4.20149966 14.19128379 8 9 C15.30631697 3.36804733 22.02328933 3.28424898 31 4 C35.26373896 5.19775262 38.11778483 7.27217249 41.5 10.0625 C43.86246487 14.68899371 43.24808655 18.85220415 43 24 C37.72 24 32.44 24 27 24 C26.505 19.545 26.505 19.545 26 15 C25.01 15 24.02 15 23 15 C22.06619039 19.53140653 22.06619039 19.53140653 23 24 C26.25201168 25.9489796 29.54673932 27.6989669 32.921875 29.41992188 C38.1761445 32.21608184 42.42244236 35.23813178 44.8125 40.9375 C45.53846154 48.92307692 45.53846154 48.92307692 44 52 C44.66 52 45.32 52 46 52 C46 34.84 46 17.68 46 0 C46.99 0 47.98 0 49 0 C49.0154612 0.99265114 49.0154612 0.99265114 49.03123474 2.00535583 C49.13905949 8.86671313 49.25367609 15.72793266 49.37231445 22.58911133 C49.41574066 25.15288421 49.45740985 27.71668746 49.49731445 30.28051758 C49.55483147 33.95663628 49.61857863 37.63260099 49.68359375 41.30859375 C49.70866249 43.03981728 49.70866249 43.03981728 49.73423767 44.80601501 C49.75418289 45.86703934 49.77412811 46.92806366 49.79467773 48.02124023 C49.81022202 48.96055893 49.8257663 49.89987762 49.84178162 50.86766052 C49.76545159 52.98306665 49.76545159 52.98306665 51 54 C50.97643433 52.37372681 50.97643433 52.37372681 50.95239258 50.71459961 C50.89784093 46.66861483 50.86355867 42.62266218 50.83520508 38.57641602 C50.82017571 36.8296155 50.79974646 35.08285235 50.77368164 33.33618164 C50.7370392 30.81647485 50.72021508 28.29726961 50.70703125 25.77734375 C50.69154739 25.00414291 50.67606354 24.23094208 50.66011047 23.43431091 C50.6583554 17.70079405 51.55204586 12.70824294 55.54296875 8.29296875 C62.41777306 3.67166324 68.4499555 2.41520801 76.6796875 3.53515625 C83.33284973 4.86802882 87.28264265 8.53975052 91 14 C92.61999633 18.39713289 92.0778911 23.3528883 92 28 C89.18743719 28.02684312 86.37512759 28.04676188 83.5625 28.0625 C82.76005859 28.07087891 81.95761719 28.07925781 81.13085938 28.08789062 C79.08704779 28.0965143 77.04316098 28.0522815 75 28 C74 27 74 27 73.90234375 24.27734375 C73.91974609 22.62412109 73.91974609 22.62412109 73.9375 20.9375 C73.94652344 19.83277344 73.95554688 18.72804688 73.96484375 17.58984375 C73.98224609 16.30787109 73.98224609 16.30787109 74 15 C72.68 15 71.36 15 70 15 C70.33 27.54 70.66 40.08 71 53 C71.99 53 72.98 53 74 53 C74.33 48.38 74.66 43.76 75 39 C80.61 39 86.22 39 92 39 C92.31959837 47.62915596 91.90311574 52.43796098 87.25 59.75 C82.32514842 64.67485158 77.82255917 65.22059971 71.0625 65.4375 C64.93705051 65.32636591 61.13102317 64.28385483 56 61 C55.98582031 61.73863281 55.97164062 62.47726563 55.95703125 63.23828125 C55.62584175 70.28277152 54.27163222 75.53986902 51.05859375 81.8203125 C49.85437777 83.89598367 49.85437777 83.89598367 50 86 C49.34 86 48.68 86 48 86 C49.2065625 87.2684375 49.2065625 87.2684375 50.4375 88.5625 C53.21628662 91.8515158 53.74117776 94.68629604 54 99 C54.53625 98.67 55.0725 98.34 55.625 98 C58.57217367 96.75908477 60.82934784 96.79321834 64 97 C64.66 97.33 65.32 97.66 66 98 C66 99.32 66 100.64 66 102 C65.38592285 102.33209473 64.7718457 102.66418945 64.13916016 103.00634766 C61.29984342 104.54357773 58.46241919 106.08427045 55.625 107.625 C54.65949219 108.14707031 53.69398438 108.66914062 52.69921875 109.20703125 C49.79018165 110.7884541 46.89307471 112.3895789 44 114 C43.03690918 114.52835449 42.07381836 115.05670898 41.08154297 115.60107422 C40.17807129 116.11428223 39.27459961 116.62749023 38.34375 117.15625 C37.53357422 117.61064453 36.72339844 118.06503906 35.88867188 118.53320312 C33.67897793 120.24931497 33.27077209 121.14280784 32.875 123.875 C32.91625 124.90625 32.9575 125.9375 33 127 C36.37367885 127.06615057 39.44945626 127.12512358 42.75 126.375 C45 126 45 126 48 128 C48.3125 130.5 48.3125 130.5 48 133 C46 135 46 135 43.4375 136 C40.85158559 136.74870114 40.85158559 136.74870114 40 139 C40.99 139.33 41.98 139.66 43 140 C42.67 141.65 42.34 143.3 42 145 C41.34 145 40.68 145 40 145 C40.66 145.99 41.32 146.98 42 148 C41.625 150.6875 41.625 150.6875 41 153 C40.26394531 152.9278125 39.52789062 152.855625 38.76953125 152.78125 C37.79371094 152.6884375 36.81789062 152.595625 35.8125 152.5 C34.84957031 152.4071875 33.88664063 152.314375 32.89453125 152.21875 C28.94735035 151.90002511 28.94735035 151.90002511 25 152 C22.77831634 154.38118166 22.77831634 154.38118166 21 157 C17.78548731 158.60725635 14.56387464 158.05748185 11 158 C11 156.35 11 154.7 11 153 C12.32 152.34 13.64 151.68 15 151 C15 148.69 15 146.38 15 144 C15.66 143.67 16.32 143.34 17 143 C17 142.34 17 141.68 17 141 C15.7625 141.20625 14.525 141.4125 13.25 141.625 C9.88090165 142.06107124 7.87158079 142.03403639 5 140 C4.34 140.99 3.68 141.98 3 143 C2.34 143 1.68 143 1 143 C1.22816406 143.56847656 1.45632812 144.13695312 1.69140625 144.72265625 C3.61344324 149.88543722 4.47673459 153.51498582 3 159 C1.5625 161.9375 1.5625 161.9375 0 164 C-0.66 164 -1.32 164 -2 164 C-1.01 166.475 -1.01 166.475 0 169 C-1 170 -1 170 -4.0625 170.0625 C-5.031875 170.041875 -6.00125 170.02125 -7 170 C-7.144375 170.804375 -7.28875 171.60875 -7.4375 172.4375 C-8 175 -8 175 -9 176 C-10.66617115 176.04063832 -12.33388095 176.042721 -14 176 C-13.42655063 173.13275314 -13.1385485 172.1385485 -11 170 C-11.78375 169.566875 -12.5675 169.13375 -13.375 168.6875 C-16 167 -16 167 -18 164 C-18.969375 163.566875 -19.93875 163.13375 -20.9375 162.6875 C-24.671228 160.63013968 -25.52393093 158.93618419 -27 155 C-27 154.01 -27 153.02 -27 152 C-30.16708663 150.95134243 -31.81599286 151.01641465 -34.875 152.3125 C-35.57367188 152.59480469 -36.27234375 152.87710938 -36.9921875 153.16796875 C-37.98605469 153.57982422 -37.98605469 153.57982422 -39 154 C-47.49288882 157.18483331 -60.64000936 159.48301005 -69.28125 156.109375 C-72.06553136 154.31224794 -73.33080857 152.92108501 -75 150 C-75.71288823 144.53162564 -75.2237028 139.43254261 -73.8125 134.125 C-72.91863216 130.67679579 -72.91863216 130.67679579 -74.25 127.3125 C-75.11625 126.1678125 -75.11625 126.1678125 -76 125 C-76.28875 123.96875 -76.5775 122.9375 -76.875 121.875 C-78.27716513 118.29168912 -79.72112402 117.83936945 -83 116 C-85.03732578 113.62311992 -86.02186729 112.06950932 -85.95703125 108.8984375 C-85.71599212 106.92121793 -85.36507252 104.95811622 -85 103 C-85.95712891 102.58427734 -85.95712891 102.58427734 -86.93359375 102.16015625 C-87.75988281 101.79792969 -88.58617188 101.43570313 -89.4375 101.0625 C-90.26121094 100.70285156 -91.08492187 100.34320313 -91.93359375 99.97265625 C-94 99 -94 99 -95 98 C-95.64773198 94.76134012 -95.41517317 92.69744029 -93.71875 89.84765625 C-89.7118025 84.52023741 -85.11003982 80.24074569 -80 76 C-79.01 75.01 -79.01 75.01 -78 74 C-74.70285207 74.32971479 -73.3773161 74.6226839 -71 77 C-71 77.99 -71 78.98 -71 80 C-68.22865934 79.52362901 -65.45794567 79.04402451 -62.6875 78.5625 C-61.90181641 78.42779297 -61.11613281 78.29308594 -60.30664062 78.15429688 C-59.54931641 78.02216797 -58.79199219 77.89003906 -58.01171875 77.75390625 C-57.31522217 77.63345947 -56.61872559 77.5130127 -55.90112305 77.38891602 C-51.22035616 76.43136347 -49.86214174 74.69308611 -47 71 C-46.34 70.67 -45.68 70.34 -45 70 C-44.71125 69.236875 -44.4225 68.47375 -44.125 67.6875 C-42.87898624 64.71091157 -41.37769684 63.13992716 -39 61 C-39.28875 60.29875 -39.5775 59.5975 -39.875 58.875 C-42.93189379 51.0629381 -43.37241253 44.19658086 -43.37060547 35.88769531 C-43.37497495 33.63789932 -43.41133432 31.3900743 -43.44921875 29.140625 C-43.50886408 21.58005465 -43.4425895 15.42963862 -39 9 C-33.33155545 4.10452516 -27.17401986 2.66144451 -19.875 3.1875 C-12.988805 4.1049563 -8.53776578 6.70593992 -4 12 C-1.35891603 17.36413262 -1.8581961 22.11513812 -2 28 C-7.61 28 -13.22 28 -19 28 C-19.33 23.71 -19.66 19.42 -20 15 C-20.99 15.33 -21.98 15.66 -23 16 C-23 24.25 -23 32.5 -23 41 C-21.68 40.01 -20.36 39.02 -19 38 C-16.98535156 37.7512207 -16.98535156 37.7512207 -14.890625 37.92578125 C-13.75947266 38.00795898 -13.75947266 38.00795898 -12.60546875 38.09179688 C-11.43951172 38.20104492 -11.43951172 38.20104492 -10.25 38.3125 C-9.45722656 38.37373047 -8.66445312 38.43496094 -7.84765625 38.49804688 C-5.89724131 38.65079021 -3.94840445 38.82345244 -2 39 C-1.67 39.99 -1.34 40.98 -1 42 C-0.67 28.14 -0.34 14.28 0 0 Z M-1 50 C0 52 0 52 0 52 Z M44 55 C43.29875 55.928125 42.5975 56.85625 41.875 57.8125 C38.87329952 61.47163343 35.63551851 63.16432101 31 64 C26.32093203 64.22665022 21.6799807 64.17747118 17 64 C17.60084274 67.20674495 17.93901171 67.94213931 20.4375 70.3125 C23.56426756 73.5917928 24.06143248 75.64845967 25 80 C25.66 79.67 26.32 79.34 27 79 C27.65213292 76.97536745 27.65213292 76.97536745 28 75 C28.99 75 29.98 75 31 75 C32.6875 77 32.6875 77 34 79 C34.433125 78.505 34.86625 78.01 35.3125 77.5 C37 76 37 76 40 76 C40.33 78.31 40.66 80.62 41 83 C43.84534204 83.29628737 43.84534204 83.29628737 47 82 C51.28357518 75.6539627 53.88410975 68.70224427 53 61 C51.72104942 58.05544266 51.72104942 58.05544266 50 56 C49.67 56 49.34 56 49 56 C49 58.64 49 61.28 49 64 C48.01 64 47.02 64 46 64 C46 61.03 46 58.06 46 55 C45.34 55 44.68 55 44 55 Z M55 59 C56 61 56 61 56 61 Z M-71 135 C-72.77512601 140.11653966 -73.3271057 143.58949215 -72 149 C-70.17375749 152.15441888 -69.51414502 152.82861833 -66 154 C-53.64758608 155.24958084 -41.32762871 151.7198453 -30 147 C-30.66 146.34 -31.32 145.68 -32 145 C-34.40399483 144.98657889 -34.40399483 144.98657889 -37.125 145.25 C-41.58859895 145.36593764 -43.65490195 144.97033602 -47 142 C-51.07784613 138.4088104 -54.16736375 138.60663789 -59.4375 138.9140625 C-62.65761845 139.02205428 -65.09713526 138.37504119 -68 137 C-68.33 136.34 -68.66 135.68 -69 135 C-69.66 135 -70.32 135 -71 135 Z " fill="#F1C614" transform="translate(101,0)"/>
<path d="M0 0 C0.99 0 1.98 0 3 0 C3.0154612 0.99265114 3.0154612 0.99265114 3.03123474 2.00535583 C3.13905949 8.86671313 3.25367609 15.72793266 3.37231445 22.58911133 C3.41574066 25.15288421 3.45740985 27.71668746 3.49731445 30.28051758 C3.55483147 33.95663628 3.61857863 37.63260099 3.68359375 41.30859375 C3.70030624 42.46274277 3.71701874 43.61689178 3.73423767 44.80601501 C3.7641555 46.3975515 3.7641555 46.3975515 3.79467773 48.02124023 C3.81799416 49.43021828 3.81799416 49.43021828 3.84178162 50.86766052 C3.76545159 52.98306665 3.76545159 52.98306665 5 54 C4.98428955 52.91581787 4.9685791 51.83163574 4.95239258 50.71459961 C4.89784093 46.66861483 4.86355867 42.62266218 4.83520508 38.57641602 C4.82017571 36.8296155 4.79974646 35.08285235 4.77368164 33.33618164 C4.7370392 30.81647485 4.72021508 28.29726961 4.70703125 25.77734375 C4.69154739 25.00414291 4.67606354 24.23094208 4.66011047 23.43431091 C4.6583554 17.70079405 5.55204586 12.70824294 9.54296875 8.29296875 C16.41777306 3.67166324 22.4499555 2.41520801 30.6796875 3.53515625 C37.33284973 4.86802882 41.28264265 8.53975052 45 14 C46.61999633 18.39713289 46.0778911 23.3528883 46 28 C43.18743719 28.02684312 40.37512759 28.04676188 37.5625 28.0625 C36.76005859 28.07087891 35.95761719 28.07925781 35.13085938 28.08789062 C33.08704779 28.0965143 31.04316098 28.0522815 29 28 C28 27 28 27 27.90234375 24.27734375 C27.91974609 22.62412109 27.91974609 22.62412109 27.9375 20.9375 C27.94652344 19.83277344 27.95554688 18.72804688 27.96484375 17.58984375 C27.98224609 16.30787109 27.98224609 16.30787109 28 15 C26.68 15 25.36 15 24 15 C24.33 27.54 24.66 40.08 25 53 C25.99 53 26.98 53 28 53 C28.33 48.38 28.66 43.76 29 39 C34.61 39 40.22 39 46 39 C46.31959837 47.62915596 45.90311574 52.43796098 41.25 59.75 C36.32514842 64.67485158 31.82255917 65.22059971 25.0625 65.4375 C18.93705051 65.32636591 15.13102317 64.28385483 10 61 C9.98582031 61.73863281 9.97164062 62.47726563 9.95703125 63.23828125 C9.62584175 70.28277152 8.27163222 75.53986902 5.05859375 81.8203125 C3.85437777 83.89598367 3.85437777 83.89598367 4 86 C3.34 86 2.68 86 2 86 C2.804375 86.845625 3.60875 87.69125 4.4375 88.5625 C7.21628662 91.8515158 7.74117776 94.68629604 8 99 C8.53625 98.67 9.0725 98.34 9.625 98 C12.57217367 96.75908477 14.82934784 96.79321834 18 97 C18.66 97.33 19.32 97.66 20 98 C20 99.32 20 100.64 20 102 C19.38592285 102.33209473 18.7718457 102.66418945 18.13916016 103.00634766 C15.29984342 104.54357773 12.46241919 106.08427045 9.625 107.625 C8.65949219 108.14707031 7.69398438 108.66914062 6.69921875 109.20703125 C3.79018165 110.7884541 0.89307471 112.3895789 -2 114 C-2.96309082 114.52835449 -3.92618164 115.05670898 -4.91845703 115.60107422 C-5.82192871 116.11428223 -6.72540039 116.62749023 -7.65625 117.15625 C-8.46642578 117.61064453 -9.27660156 118.06503906 -10.11132812 118.53320312 C-12.32102207 120.24931497 -12.72922791 121.14280784 -13.125 123.875 C-13.08375 124.90625 -13.0425 125.9375 -13 127 C-9.62632115 127.06615057 -6.55054374 127.12512358 -3.25 126.375 C-1 126 -1 126 2 128 C2.3125 130.5 2.3125 130.5 2 133 C-0 135 -0 135 -2.5625 136 C-5.14841441 136.74870114 -5.14841441 136.74870114 -6 139 C-5.01 139.33 -4.02 139.66 -3 140 C-3.33 141.65 -3.66 143.3 -4 145 C-4.66 145 -5.32 145 -6 145 C-5.34 145.99 -4.68 146.98 -4 148 C-4.375 150.6875 -4.375 150.6875 -5 153 C-5.73605469 152.9278125 -6.47210938 152.855625 -7.23046875 152.78125 C-8.20628906 152.6884375 -9.18210937 152.595625 -10.1875 152.5 C-11.15042969 152.4071875 -12.11335938 152.314375 -13.10546875 152.21875 C-17.05264965 151.90002511 -17.05264965 151.90002511 -21 152 C-23.22168366 154.38118166 -23.22168366 154.38118166 -25 157 C-28.21451269 158.60725635 -31.43612536 158.05748185 -35 158 C-35 156.35 -35 154.7 -35 153 C-33.68 152.34 -32.36 151.68 -31 151 C-31 148.69 -31 146.38 -31 144 C-30.34 143.67 -29.68 143.34 -29 143 C-29 142.34 -29 141.68 -29 141 C-30.2375 141.20625 -31.475 141.4125 -32.75 141.625 C-36.11909835 142.06107124 -38.12841921 142.03403639 -41 140 C-41.66 140.99 -42.32 141.98 -43 143 C-43.66 143 -44.32 143 -45 143 C-44.77183594 143.56847656 -44.54367188 144.13695312 -44.30859375 144.72265625 C-42.38655676 149.88543722 -41.52326541 153.51498582 -43 159 C-44.4375 161.9375 -44.4375 161.9375 -46 164 C-46.66 164 -47.32 164 -48 164 C-47.01 166.475 -47.01 166.475 -46 169 C-47 170 -47 170 -50.0625 170.0625 C-51.031875 170.041875 -52.00125 170.02125 -53 170 C-53.144375 170.804375 -53.28875 171.60875 -53.4375 172.4375 C-54 175 -54 175 -55 176 C-56.66617115 176.04063832 -58.33388095 176.042721 -60 176 C-59.42655063 173.13275314 -59.1385485 172.1385485 -57 170 C-57.78375 169.566875 -58.5675 169.13375 -59.375 168.6875 C-62 167 -62 167 -64 164 C-64.969375 163.566875 -65.93875 163.13375 -66.9375 162.6875 C-70.671228 160.63013968 -71.52393093 158.93618419 -73 155 C-73 154.01 -73 153.02 -73 152 C-76.16708663 150.95134243 -77.81599286 151.01641465 -80.875 152.3125 C-81.57367188 152.59480469 -82.27234375 152.87710938 -82.9921875 153.16796875 C-83.98605469 153.57982422 -83.98605469 153.57982422 -85 154 C-93.49288882 157.18483331 -106.64000936 159.48301005 -115.28125 156.109375 C-118.06553136 154.31224794 -119.33080857 152.92108501 -121 150 C-122.03217742 142.08244397 -120.49687576 134.49062729 -118 127 C-118 127.66 -118 128.32 -118 129 C-117.01 129 -116.02 129 -115 129 C-115 130.98 -115 132.96 -115 135 C-115.66 135 -116.32 135 -117 135 C-118.47744411 143.93333742 -118.47744411 143.93333742 -115 152 C-107.33658385 154.55447205 -99.28482792 153.09913048 -91.625 151.1875 C-90.95960205 151.0222583 -90.2942041 150.8570166 -89.60864258 150.68676758 C-85.44323749 149.57546993 -81.80623509 148.00183834 -78 146 C-77.01 145.67 -76.02 145.34 -75 145 C-74.030625 144.649375 -73.06125 144.29875 -72.0625 143.9375 C-69 143 -69 143 -65 143 C-65 142.34 -65 141.68 -65 141 C-65.804375 140.731875 -66.60875 140.46375 -67.4375 140.1875 C-69.38008131 139.5399729 -71.32217334 138.8909396 -73.26171875 138.234375 C-74.04160156 137.97140625 -74.82148437 137.7084375 -75.625 137.4375 C-76.35976562 137.18871094 -77.09453125 136.93992188 -77.8515625 136.68359375 C-82.64254667 135.15918969 -87.23958722 134.70749574 -92.25 134.4375 C-92.99507812 134.39431641 -93.74015625 134.35113281 -94.5078125 134.30664062 C-96.338349 134.20103275 -98.16915176 134.10005799 -100 134 C-100.25168945 133.31486328 -100.50337891 132.62972656 -100.76269531 131.92382812 C-101.9203813 128.78077964 -103.085133 125.64039379 -104.25 122.5 C-104.84361328 120.88351563 -104.84361328 120.88351563 -105.44921875 119.234375 C-107.20241946 114.52085179 -108.95375776 109.9235655 -111.296875 105.46875 C-113 102 -113 102 -113 98 C-109.535 97.505 -109.535 97.505 -106 97 C-106 93.88742431 -106.17361624 91.89234315 -107 89 C-93.64484089 89.38376894 -81.27220649 91.46485532 -69 97 C-69 97.33 -69 97.66 -69 98 C-71.64 98 -74.28 98 -77 98 C-73.04 98.99 -69.08 99.98 -65 101 C-65 101.99 -65 102.98 -65 104 C-65.78246094 104.38671875 -66.56492188 104.7734375 -67.37109375 105.171875 C-68.38300781 105.69265625 -69.39492187 106.2134375 -70.4375 106.75 C-71.44683594 107.26046875 -72.45617187 107.7709375 -73.49609375 108.296875 C-76.14407316 109.75022736 -76.14407316 109.75022736 -76.84765625 112.203125 C-76.89792969 112.79609375 -76.94820312 113.3890625 -77 114 C-69.79259574 114.38382626 -63.45687742 114.4797971 -56.625 111.9375 C-51.72449271 110.14194376 -47.94525266 108.81377826 -43 111 C-39.45120472 113.43915756 -36.19959552 116.12167534 -33 119 C-27.49871799 115.73174226 -23.4940688 111.57231113 -19.1875 106.875 C-18.50751953 106.14667969 -17.82753906 105.41835937 -17.12695312 104.66796875 C-13.67625897 101.11089091 -13.67625897 101.11089091 -11 97 C-12.65 96.67 -14.3 96.34 -16 96 C-15.67 93.69 -15.34 91.38 -15 89 C-25.98266775 89.33844893 -36.57580325 90.7789758 -46.74609375 95.19140625 C-49 96 -49 96 -52 95 C-45.4939572 91.83138834 -39.67998155 89.85897618 -32.55908203 88.77539062 C-24.77449488 87.86848614 -24.77449488 87.86848614 -18.89453125 83.3046875 C-17.8963635 80.48675544 -17.27157235 77.9719238 -17 75 C-16.01 75.99 -15.02 76.98 -14 78 C-13.4225 77.690625 -12.845 77.38125 -12.25 77.0625 C-10.15705816 76.07416636 -8.25464725 75.4831387 -6 75 C-5.01 78.465 -5.01 78.465 -4 82 C-3.01 81.67 -2.02 81.34 -1 81 C-0.34 81.33 0.32 81.66 1 82 C1.67561748 80.3369416 2.33933281 78.66905395 3 77 C3.26425781 76.39542969 3.52851563 75.79085937 3.80078125 75.16796875 C6.12508828 69.58302247 7.34204676 64.3551169 5 58.5 C4.67 58.005 4.34 57.51 4 57 C3.67 59.31 3.34 61.62 3 64 C2.01 64 1.02 64 0 64 C0 61.03 0 58.06 0 55 C-1.485 54.505 -1.485 54.505 -3 54 C-3 53.34 -3 52.68 -3 52 C-2.01 52 -1.02 52 0 52 C0 34.84 0 17.68 0 0 Z M9 59 C10 61 10 61 10 61 Z " fill="#A8A6A3" transform="translate(147,0)"/>
<path d="M0 0 C13.35515911 0.38376894 25.72779351 2.46485532 38 8 C38 8.33 38 8.66 38 9 C35.36 9 32.72 9 30 9 C35.94 10.485 35.94 10.485 42 12 C42 12.99 42 13.98 42 15 C41.21753906 15.38671875 40.43507812 15.7734375 39.62890625 16.171875 C38.61699219 16.69265625 37.60507813 17.2134375 36.5625 17.75 C35.55316406 18.26046875 34.54382813 18.7709375 33.50390625 19.296875 C30.85592684 20.75022736 30.85592684 20.75022736 30.15234375 23.203125 C30.10207031 23.79609375 30.05179688 24.3890625 30 25 C37.20740426 25.38382626 43.54312258 25.4797971 50.375 22.9375 C55.66595995 20.98672166 58.55975498 20.27725575 64 22 C67.64128458 24.44877982 71.33112097 26.93551392 72.72265625 31.23046875 C72.81417969 31.81441406 72.90570313 32.39835937 73 33 C71.35 34.32 69.7 35.64 68 37 C64.20950293 35.57250019 60.72877544 33.83763458 57.1875 31.875 C56.21167969 31.33617188 55.23585937 30.79734375 54.23046875 30.2421875 C53.49441406 29.83226563 52.75835937 29.42234375 52 29 C52 29.66 52 30.32 52 31 C52.66 31.04125 53.32 31.0825 54 31.125 C58.38913955 32.4051657 61.48526529 35.14809367 65 38 C62.8125 40.5625 62.8125 40.5625 60 43 C55.12991266 43.26324796 50.90184285 39.62381988 47 37 C47 37.66 47 38.32 47 39 C47.7425 39.2475 48.485 39.495 49.25 39.75 C52.20124062 41.09147301 53.84814974 42.60905526 56 45 C54.3125 46.5625 54.3125 46.5625 52 48 C48.59388766 47.74454157 45.96702767 46.6483487 43 45 C44.65 46.65 46.3 48.3 48 50 C45 52 45 52 41.75 51.8125 C37.85840629 50.96932136 34.63984619 49.59642377 31 48 C23.19778596 45.44654813 15.14274029 45.37551472 7 45 C6.62246582 43.97229492 6.62246582 43.97229492 6.23730469 42.92382812 C5.0796187 39.78077964 3.914867 36.64039379 2.75 33.5 C2.35425781 32.42234375 1.95851563 31.3446875 1.55078125 30.234375 C-0.20241946 25.52085179 -1.95375776 20.9235655 -4.296875 16.46875 C-6 13 -6 13 -6 9 C-2.535 8.505 -2.535 8.505 1 8 C1 4.88742431 0.82638376 2.89234315 0 0 Z " fill="#2B2362" transform="translate(40,89)"/>
<path d="M0 0 C3.29714793 0.32971479 4.6226839 0.6226839 7 3 C7 3.99 7 4.98 7 6 C10.3 5.67 13.6 5.34 17 5 C17 5.66 17 6.32 17 7 C18.15757813 6.95488281 19.31515625 6.90976563 20.5078125 6.86328125 C24.94744845 6.86816426 28.68668533 7.78985416 32.875 9.1875 C33.92034912 9.52696655 33.92034912 9.52696655 34.98681641 9.87329102 C40.61266791 11.75531109 45.83769038 14.06746109 51 17 C51.92167969 17.49757813 52.84335938 17.99515625 53.79296875 18.5078125 C60.76373719 22.42088138 60.76373719 22.42088138 61.83984375 25.05859375 C62 27 62 27 61 29 C60.34 29 59.68 29 59 29 C59 28.34 59 27.68 59 27 C58.16855469 26.87882812 57.33710937 26.75765625 56.48046875 26.6328125 C55.39378906 26.46523437 54.30710937 26.29765625 53.1875 26.125 C52.10855469 25.96257812 51.02960938 25.80015625 49.91796875 25.6328125 C47 25 47 25 44 23 C46.97 23 49.94 23 53 23 C41.18564817 18.40855451 29.55205214 16.45633548 17 15 C17.495 15.8971875 17.495 15.8971875 18 16.8125 C19 19 19 19 19 22 C26.92 22 34.84 22 43 22 C43 22.33 43 22.66 43 23 C27.16 23.495 27.16 23.495 11 24 C12.32 27.3 13.64 30.6 15 34 C16.0302791 36.70542728 17.05382879 39.41164726 18.0625 42.125 C18.30548828 42.77597656 18.54847656 43.42695312 18.79882812 44.09765625 C19.28528448 45.40089475 19.77049704 46.70459828 20.25439453 48.00878906 C20.77888681 49.40949601 21.31189603 50.80702874 21.85107422 52.20214844 C24 57.79061584 24 57.79061584 24 60 C25.52367188 59.94779297 25.52367188 59.94779297 27.078125 59.89453125 C38.66506513 59.61760889 49.06092841 60.44924827 59 67 C59 67.66 59 68.32 59 69 C51.18792116 72.02403052 43.34054514 73.29163304 35 72 C32.70063534 70.64396443 30.95470941 69.13089382 28.99609375 67.328125 C25.68402046 65.12439718 22.41107803 65.68812312 18.5625 65.91796875 C15.36303009 66.0203908 12.90827607 65.30107087 10 64 C9 63 9 63 8.90234375 61.15234375 C8.93489583 59.1015625 8.96744792 57.05078125 9 55 C8.01 55 7.02 55 6 55 C6 54.34 6 53.68 6 53 C5.38125 52.79375 4.7625 52.5875 4.125 52.375 C2 51 2 51 1.0625 48.0625 C-0.25822369 44.2557082 -1.58445841 43.91603553 -5 42 C-7.03732578 39.62311992 -8.02186729 38.06950932 -7.95703125 34.8984375 C-7.71599212 32.92121793 -7.36507252 30.95811622 -7 29 C-7.63808594 28.72285156 -8.27617187 28.44570312 -8.93359375 28.16015625 C-9.75988281 27.79792969 -10.58617187 27.43570313 -11.4375 27.0625 C-12.26121094 26.70285156 -13.08492187 26.34320313 -13.93359375 25.97265625 C-16 25 -16 25 -17 24 C-17.64773198 20.76134012 -17.41517317 18.69744029 -15.71875 15.84765625 C-11.7118025 10.52023741 -7.11003982 6.24074569 -2 2 C-1.34 1.34 -0.68 0.68 0 0 Z " fill="#F0AD22" transform="translate(23,74)"/>
<path d="M0 0 C3.57861891 3.09062542 5.5597693 5.51711976 7 10 C7.24900142 13.69020108 7.08927037 17.2952795 7 21 C1.39 21 -4.22 21 -10 21 C-10.495 14.565 -10.495 14.565 -11 8 C-11.99 8.33 -12.98 8.66 -14 9 C-14 17.25 -14 25.5 -14 34 C-12.68 33.01 -11.36 32.02 -10 31 C-7.98535156 30.7512207 -7.98535156 30.7512207 -5.890625 30.92578125 C-4.75947266 31.00795898 -4.75947266 31.00795898 -3.60546875 31.09179688 C-2.43951172 31.20104492 -2.43951172 31.20104492 -1.25 31.3125 C-0.45722656 31.37373047 0.33554688 31.43496094 1.15234375 31.49804688 C3.10275869 31.65079021 5.05159555 31.82345244 7 32 C7.08730541 40.37258863 6.89682863 47.1039158 0.90234375 53.5234375 C-3.60672476 57.02328944 -9.03152991 57.75825806 -14.5625 58.4375 C-21.60057988 57.54174438 -27.56775458 54.64103963 -32 49 C-34.69176841 42.4550523 -34.37211706 35.83798355 -34.37060547 28.88769531 C-34.37497495 26.63789932 -34.41133432 24.3900743 -34.44921875 22.140625 C-34.50886408 14.58005465 -34.4425895 8.42963862 -30 2 C-21.61850052 -5.23856774 -9.2965852 -6.05359036 0 0 Z " fill="#0A4F96" transform="translate(92,7)"/>
<path d="M0 0 C3.70404459 3.52102121 6.74806377 6.70933921 7 12 C7.05588604 15.00260441 7.05032536 17.9975059 7 21 C4.18743719 21.02684312 1.37512759 21.04676188 -1.4375 21.0625 C-2.23994141 21.07087891 -3.04238281 21.07925781 -3.86914062 21.08789062 C-5.91295221 21.0965143 -7.95683902 21.0522815 -10 21 C-11 20 -11 20 -11.09765625 17.27734375 C-11.08605469 16.17519531 -11.07445312 15.07304687 -11.0625 13.9375 C-11.05347656 12.83277344 -11.04445312 11.72804688 -11.03515625 10.58984375 C-11.02355469 9.73519531 -11.01195312 8.88054688 -11 8 C-12.32 8 -13.64 8 -15 8 C-14.67 20.54 -14.34 33.08 -14 46 C-13.01 46 -12.02 46 -11 46 C-10.67 41.38 -10.34 36.76 -10 32 C-4.39 32 1.22 32 7 32 C7.31959837 40.62915596 6.90311574 45.43796098 2.25 52.75 C-2.67485158 57.67485158 -7.17744083 58.22059971 -13.9375 58.4375 C-19.76410159 58.29508572 -24.40545397 57.76127824 -29 54 C-35.1833998 46.5482105 -34.21641584 38.11009651 -34.24023438 28.90820312 C-34.24994033 26.63895002 -34.28099921 24.37060353 -34.3125 22.1015625 C-34.31903141 20.64323449 -34.32428134 19.18490007 -34.328125 17.7265625 C-34.3374707 16.41252441 -34.34681641 15.09848633 -34.35644531 13.74462891 C-33.90407561 8.99226825 -32.73805257 4.92285816 -29.45703125 1.29296875 C-20.56237724 -4.68609796 -9.3050232 -6.344334 0 0 Z " fill="#13559A" transform="translate(186,7)"/>
<path d="M0 0 C3.27473243 2.03792362 5.58687156 3.81074847 7.375 7.3125 C7.69152178 11.04745699 7.55630859 14.55034684 7.375 18.3125 C2.095 18.3125 -3.185 18.3125 -8.625 18.3125 C-8.955 15.3425 -9.285 12.3725 -9.625 9.3125 C-10.615 9.3125 -11.605 9.3125 -12.625 9.3125 C-13.55880961 13.84390653 -13.55880961 13.84390653 -12.625 18.3125 C-9.37298832 20.2614796 -6.07826068 22.0114669 -2.703125 23.73242188 C2.5511445 26.52858184 6.79744236 29.55063178 9.1875 35.25 C9.71764668 41.08161345 9.77234947 46.87850787 7.375 52.3125 C3.12422031 56.75649695 -0.91188155 59.08853413 -7.0859375 59.4609375 C-11.11792626 59.52005757 -14.73149094 59.43390238 -18.625 58.3125 C-18.955 59.3025 -19.285 60.2925 -19.625 61.3125 C-19.686875 60.36375 -19.74875 59.415 -19.8125 58.4375 C-20.2146875 56.890625 -20.2146875 56.890625 -20.625 55.3125 C-22.27051962 54.59522222 -23.93922289 53.92924772 -25.625 53.3125 C-26.9375 50.6875 -26.9375 50.6875 -27.625 48.3125 C-28.285 48.3125 -28.945 48.3125 -29.625 48.3125 C-29.625 44.6825 -29.625 41.0525 -29.625 37.3125 C-27.14576199 37.28564905 -24.6668116 37.26573453 -22.1875 37.25 C-21.48044922 37.24162109 -20.77339844 37.23324219 -20.04492188 37.22460938 C-18.23806441 37.21596412 -16.43112397 37.26029989 -14.625 37.3125 C-13.625 38.3125 -13.625 38.3125 -13.52734375 40.37890625 C-13.53894531 41.20261719 -13.55054687 42.02632812 -13.5625 42.875 C-13.57152344 43.70128906 -13.58054687 44.52757812 -13.58984375 45.37890625 C-13.60144531 46.01699219 -13.61304687 46.65507813 -13.625 47.3125 C-10.655 46.8175 -10.655 46.8175 -7.625 46.3125 C-7.56851421 43.48821071 -7.58225769 41.88044747 -8.625 39.3125 C-11.34240359 36.84928561 -14.45711587 35.13863504 -17.625 33.3125 C-19.25921575 32.28535185 -20.88466302 31.24408927 -22.5 30.1875 C-23.21929687 29.73117188 -23.93859375 29.27484375 -24.6796875 28.8046875 C-27.8302652 26.3879793 -29.37371313 24.06636061 -30.625 20.3125 C-31.12972286 14.12964496 -31.42350034 8.50378379 -27.625 3.3125 C-19.94168027 -2.61005896 -9.0295518 -4.23313582 0 0 Z " fill="#C5C7C9" transform="translate(136.625,5.6875)"/>
<path d="M0 0 C4.75 1.875 4.75 1.875 7 3 C7.40729228 5.32156597 7.74438677 7.6568787 8 10 C8.53625 9.67 9.0725 9.34 9.625 9 C12.57217367 7.75908477 14.82934784 7.79321834 18 8 C18.99 8.495 18.99 8.495 20 9 C20 10.32 20 11.64 20 13 C19.07888428 13.49814209 19.07888428 13.49814209 18.13916016 14.00634766 C15.29984342 15.54357773 12.46241919 17.08427045 9.625 18.625 C8.65949219 19.14707031 7.69398438 19.66914062 6.69921875 20.20703125 C3.79018165 21.7884541 0.89307471 23.3895789 -2 25 C-3.44463623 25.79253174 -3.44463623 25.79253174 -4.91845703 26.60107422 C-5.82192871 27.11428223 -6.72540039 27.62749023 -7.65625 28.15625 C-8.46642578 28.61064453 -9.27660156 29.06503906 -10.11132812 29.53320312 C-12.32102207 31.24931497 -12.72922791 32.14280784 -13.125 34.875 C-13.08375 35.90625 -13.0425 36.9375 -13 38 C-9.62632115 38.06615057 -6.55054374 38.12512358 -3.25 37.375 C-1 37 -1 37 2 39 C2.3125 41.5 2.3125 41.5 2 44 C0 46 0 46 -2.5625 47 C-5.14841441 47.74870114 -5.14841441 47.74870114 -6 50 C-5.01 50.33 -4.02 50.66 -3 51 C-3.33 52.65 -3.66 54.3 -4 56 C-4.66 56 -5.32 56 -6 56 C-5.34 56.99 -4.68 57.98 -4 59 C-4.375 61.6875 -4.375 61.6875 -5 64 C-5.73605469 63.9278125 -6.47210938 63.855625 -7.23046875 63.78125 C-8.20628906 63.6884375 -9.18210938 63.595625 -10.1875 63.5 C-11.63189453 63.36078125 -11.63189453 63.36078125 -13.10546875 63.21875 C-17.05264965 62.90002511 -17.05264965 62.90002511 -21 63 C-23.22168366 65.38118166 -23.22168366 65.38118166 -25 68 C-28.21451269 69.60725635 -31.43612536 69.05748185 -35 69 C-35 67.35 -35 65.7 -35 64 C-33.68 63.34 -32.36 62.68 -31 62 C-31 59.69 -31 57.38 -31 55 C-30.01 54.505 -30.01 54.505 -29 54 C-29 53.34 -29 52.68 -29 52 C-30.2375 52.20625 -31.475 52.4125 -32.75 52.625 C-36.11909835 53.06107124 -38.12841921 53.03403639 -41 51 C-41.66 51.66 -42.32 52.32 -43 53 C-43.99 51.02 -44.98 49.04 -46 47 C-42.37 47.66 -38.74 48.32 -35 49 C-35.515625 48.236875 -36.03125 47.47375 -36.5625 46.6875 C-37.036875 45.800625 -37.51125 44.91375 -38 44 C-37.67 43.01 -37.34 42.02 -37 41 C-36.505 41.495 -36.01 41.99 -35.5 42.5 C-31.88369842 44.66978095 -29.17768384 44.20888419 -25 44 C-25.515625 43.113125 -26.03125 42.22625 -26.5625 41.3125 C-28.16724201 37.61461623 -28.27743593 36.71567235 -27 33 C-24.78515625 30.4296875 -24.78515625 30.4296875 -22.0625 27.875 C-19.34056911 25.29797766 -17.08272194 23.12408291 -15 20 C-14.34 20 -13.68 20 -13 20 C-12.58548584 19.13036621 -12.58548584 19.13036621 -12.16259766 18.24316406 C-11.03574274 16.06896352 -9.79305778 14.12022285 -8.3984375 12.109375 C-7.90859375 11.40039062 -7.41875 10.69140625 -6.9140625 9.9609375 C-6.15222656 8.86652344 -6.15222656 8.86652344 -5.375 7.75 C-4.859375 7.00492187 -4.34375 6.25984375 -3.8125 5.4921875 C-2.54395914 3.6598507 -1.27306421 1.82919561 0 0 Z " fill="#F09D32" transform="translate(147,89)"/>
<path d="M0 0 C1 2 2 4 3 6 C3.66 4.35 4.32 2.7 5 1 C6.32 1.33 7.64 1.66 9 2 C9.495 3.98 9.495 3.98 10 6 C9.01 5.01 8.02 4.02 7 3 C6.89429688 3.73605469 6.78859375 4.47210938 6.6796875 5.23046875 C5.64186557 9.04421246 4.70603141 11.06190464 2 14 C-4.18310315 16.59062699 -10.95222959 17.35783252 -17.52294922 18.4609375 C-20.74570823 19.16228304 -23.17817513 20.3193192 -26 22 C-25.3915625 21.74605469 -24.783125 21.49210937 -24.15625 21.23046875 C-13.48624084 17.04092104 -2.48458267 14.74450317 9 15 C8.67 17.64 8.34 20.28 8 23 C9.98 23.495 9.98 23.495 12 24 C9.73981412 29.07796942 5.90730623 32.63516901 2.125 36.625 C1.40441406 37.40101562 0.68382812 38.17703125 -0.05859375 38.9765625 C-0.75855469 39.7190625 -1.45851562 40.4615625 -2.1796875 41.2265625 C-2.81632324 41.90283691 -3.45295898 42.57911133 -4.10888672 43.27587891 C-5.98589795 44.98714321 -7.68106444 45.99386356 -10 47 C-10.6290625 46.43410156 -11.258125 45.86820313 -11.90625 45.28515625 C-18.08543561 39.75450953 -18.08543561 39.75450953 -25.828125 37.67578125 C-29.61790137 38.24152125 -33.10131265 39.74262402 -36.6796875 41.07421875 C-42.39552293 42.66792816 -48.11933237 42.31317165 -54 42 C-54.33 40.68 -54.66 39.36 -55 38 C-49.65079596 33.01970658 -42.36389089 29 -35 29 C-35.12761719 28.2678125 -35.25523438 27.535625 -35.38671875 26.78125 C-35 24 -35 24 -32.39453125 21.71875 C-31.21441887 20.95718638 -30.01915825 20.218763 -28.8125 19.5 C-27.8687854 18.91690063 -27.8687854 18.91690063 -26.90600586 18.32202148 C-18.84037594 13.4911135 -10.08740594 10.32468524 -1 8 C-0.67 5.36 -0.34 2.72 0 0 Z " fill="#FCFBF8" transform="translate(124,73)"/>
<path d="M0 0 C0.99 0 1.98 0 3 0 C3.5326514 6.258654 1.81849506 10.45108785 -1 16 C2.21203935 13.50174717 5.17493137 10.9297008 8 8 C10.4375 8.6875 10.4375 8.6875 13 10 C13.8125 12.625 13.8125 12.625 14 15 C17.95895741 13.15128412 21.34308634 10.69056009 24.87890625 8.14453125 C25.57886719 7.76683594 26.27882813 7.38914063 27 7 C27.99 7.33 28.98 7.66 30 8 C29.649375 8.5775 29.29875 9.155 28.9375 9.75 C27.85082593 12.35801776 28.06934867 13.39417629 29 16 C30.32 16 31.64 16 33 16 C32.67 17.32 32.34 18.64 32 20 C29.125 20.625 29.125 20.625 26 21 C25.01 20.01 25.01 20.01 24 19 C23.071875 19.680625 22.14375 20.36125 21.1875 21.0625 C20.135625 21.701875 19.08375 22.34125 18 23 C16.515 22.505 16.515 22.505 15 22 C15 21.34 15 20.68 15 20 C14.01 20.66 13.02 21.32 12 22 C9.3125 22.125 9.3125 22.125 7 22 C7.52268466 19.23723823 8.10869587 16.6739124 9 14 C8.00419922 14.84884766 8.00419922 14.84884766 6.98828125 15.71484375 C6.10527344 16.44832031 5.22226563 17.18179688 4.3125 17.9375 C3.44238281 18.66839844 2.57226562 19.39929688 1.67578125 20.15234375 C-1.01522974 22.0105163 -2.78756588 22.63534532 -6 23 C-6.99 20.525 -6.99 20.525 -8 18 C-8.721875 18.515625 -9.44375 19.03125 -10.1875 19.5625 C-13 21 -13 21 -15.6875 20.8125 C-18 20 -18 20 -20 18 C-20.763125 18.37125 -21.52625 18.7425 -22.3125 19.125 C-23.199375 19.41375 -24.08625 19.7025 -25 20 C-25.99 19.34 -26.98 18.68 -28 18 C-30.62531524 17.83286431 -30.62531524 17.83286431 -33 18 C-33.495 19.485 -33.495 19.485 -34 21 C-36.0625 21.6875 -36.0625 21.6875 -38 22 C-38.33 20.35 -38.66 18.7 -39 17 C-39.86625 17.99 -39.86625 17.99 -40.75 19 C-43 21 -43 21 -47 21 C-47 20.01 -47 19.02 -47 18 C-47.99 18 -48.98 18 -50 18 C-50 17.34 -50 16.68 -50 16 C-51.11375 16.185625 -52.2275 16.37125 -53.375 16.5625 C-57 17 -57 17 -59 16 C-59 16.99 -59 17.98 -59 19 C-62.12651057 20.85274701 -64.37173105 21.45353362 -68 21 C-70.3125 19.5 -70.3125 19.5 -72 18 C-71.15634325 13.44425355 -68.88003613 8.68617886 -65 6 C-62.3125 6.3125 -62.3125 6.3125 -60 7 C-60.49831724 10.68754757 -61.10067643 12.60490662 -64 15 C-63.01 15.33 -62.02 15.66 -61 16 C-60.34 14.68 -59.68 13.36 -59 12 C-57.741875 11.979375 -56.48375 11.95875 -55.1875 11.9375 C-54.47980469 11.92589844 -53.77210937 11.91429687 -53.04296875 11.90234375 C-51 12 -51 12 -48 13 C-46.31295807 11.69254251 -44.64639965 10.35827971 -43 9 C-42.01 9 -41.02 9 -40 9 C-39.505 10.485 -39.505 10.485 -39 12 C-38.21625 11.34 -37.4325 10.68 -36.625 10 C-34 8 -34 8 -32 8 C-31.505 9.98 -31.505 9.98 -31 12 C-30.401875 11.773125 -29.80375 11.54625 -29.1875 11.3125 C-28.465625 11.209375 -27.74375 11.10625 -27 11 C-25.25 12.4375 -25.25 12.4375 -24 14 C-23.4225 13.690625 -22.845 13.38125 -22.25 13.0625 C-20.15705816 12.07416636 -18.25464725 11.4831387 -16 11 C-15.01 12.65 -14.02 14.3 -13 16 C-12.030625 15.21625 -11.06125 14.4325 -10.0625 13.625 C-9.51722656 13.18414062 -8.97195312 12.74328125 -8.41015625 12.2890625 C-6.86733563 11.0333609 -6.86733563 11.0333609 -6 9 C-7.32 8.34 -8.64 7.68 -10 7 C-9.67 5.68 -9.34 4.36 -9 3 C-6.36 3 -3.72 3 -1 3 C-0.67 2.01 -0.34 1.02 0 0 Z " fill="#77739D" transform="translate(106,169)"/>
<path d="M0 0 C0.99 0 1.98 0 3 0 C3.00142502 0.65510559 3.00285004 1.31021118 3.00431824 1.98516846 C3.02399223 8.79864466 3.07821682 15.6112222 3.15258789 22.42431641 C3.17579668 24.96754511 3.19017031 27.51087032 3.19555664 30.05419922 C3.20482459 33.70862168 3.24577186 37.36152007 3.29296875 41.015625 C3.2890361 42.15429016 3.28510345 43.29295532 3.28105164 44.46612549 C3.20719573 50.66343194 3.20719573 50.66343194 6.49560547 55.60546875 C7.32205566 56.06566406 8.14850586 56.52585938 9 57 C11.97917522 65.80278908 8.58501616 74.19781287 4.8046875 82.1171875 C3.86900063 83.96525297 3.86900063 83.96525297 4 86 C3.34 86 2.68 86 2 86 C3.32 87.32 4.64 88.64 6 90 C5.67 90.66 5.34 91.32 5 92 C3.35 91.34 1.7 90.68 0 90 C-0.32613281 90.5775 -0.65226562 91.155 -0.98828125 91.75 C-1.42527344 92.4925 -1.86226562 93.235 -2.3125 94 C-2.74175781 94.7425 -3.17101562 95.485 -3.61328125 96.25 C-4.07089844 96.8275 -4.52851563 97.405 -5 98 C-5.99 98 -6.98 98 -8 98 C-10.00319381 99.78577046 -11.84334566 101.56304305 -13.6875 103.5 C-14.19861328 104.02464844 -14.70972656 104.54929687 -15.23632812 105.08984375 C-16.49772708 106.38660904 -17.74977212 107.69246117 -19 109 C-19 106 -19 106 -17.50390625 104.24609375 C-16.86324219 103.64925781 -16.22257812 103.05242187 -15.5625 102.4375 C-12.9103837 99.99710571 -12.9103837 99.99710571 -11 97 C-12.65 96.67 -14.3 96.34 -16 96 C-15.67 93.69 -15.34 91.38 -15 89 C-25.98266775 89.33844893 -36.57580325 90.7789758 -46.74609375 95.19140625 C-49 96 -49 96 -52 95 C-45.4939572 91.83138834 -39.67998155 89.85897618 -32.55908203 88.77539062 C-24.77449488 87.86848614 -24.77449488 87.86848614 -18.89453125 83.3046875 C-17.8963635 80.48675544 -17.27157235 77.9719238 -17 75 C-16.01 75.99 -15.02 76.98 -14 78 C-13.4225 77.690625 -12.845 77.38125 -12.25 77.0625 C-10.15705816 76.07416636 -8.25464725 75.4831387 -6 75 C-5.34 77.31 -4.68 79.62 -4 82 C-3.01 81.67 -2.02 81.34 -1 81 C-0.01 81.495 -0.01 81.495 1 82 C1.67561748 80.3369416 2.33933281 78.66905395 3 77 C3.26425781 76.39542969 3.52851563 75.79085937 3.80078125 75.16796875 C6.12508828 69.58302247 7.34204676 64.3551169 5 58.5 C4.67 58.005 4.34 57.51 4 57 C3.67 59.31 3.34 61.62 3 64 C2.01 64 1.02 64 0 64 C0 61.03 0 58.06 0 55 C-0.99 54.67 -1.98 54.34 -3 54 C-3 53.34 -3 52.68 -3 52 C-2.01 52 -1.02 52 0 52 C0 34.84 0 17.68 0 0 Z " fill="#B4B4B3" transform="translate(147,0)"/>
<path d="M0 0 C1.46184058 0.22860058 2.91955419 0.48370392 4.375 0.75 C5.18710938 0.88921875 5.99921875 1.0284375 6.8359375 1.171875 C9 2 9 2 10.21484375 3.90234375 C10.60349609 4.94068359 10.60349609 4.94068359 11 6 C11.391875 6.928125 11.78375 7.85625 12.1875 8.8125 C13.44085645 13.72951377 12.77863733 17.40887154 10.5625 21.9375 C9.7890625 22.9584375 9.7890625 22.9584375 9 24 C8.34 24 7.68 24 7 24 C7.66 25.65 8.32 27.3 9 29 C8 30 8 30 4.9375 30.0625 C3.968125 30.041875 2.99875 30.02125 2 30 C1.855625 30.804375 1.71125 31.60875 1.5625 32.4375 C1 35 1 35 0 36 C-1.66617115 36.04063832 -3.33388095 36.042721 -5 36 C-4.42655063 33.13275314 -4.1385485 32.1385485 -2 30 C-2.78375 29.566875 -3.5675 29.13375 -4.375 28.6875 C-7 27 -7 27 -9 24 C-9.969375 23.566875 -10.93875 23.13375 -11.9375 22.6875 C-15.671228 20.63013968 -16.52393093 18.93618419 -18 15 C-18 14.01 -18 13.02 -18 12 C-18.66 12 -19.32 12 -20 12 C-20 11.01 -20 10.02 -20 9 C-18.43979133 8.34865075 -16.87671421 7.70417036 -15.3125 7.0625 C-14.00732422 6.52302734 -14.00732422 6.52302734 -12.67578125 5.97265625 C-7.36935857 4.04375224 -3.57906413 4.01545927 2 5 C1.34 3.35 0.68 1.7 0 0 Z " fill="#F2902C" transform="translate(92,140)"/>
<path d="M0 0 C4.75 1.875 4.75 1.875 7 3 C7.40729228 5.32156597 7.74438677 7.6568787 8 10 C8.53625 9.67 9.0725 9.34 9.625 9 C12.57217367 7.75908477 14.82934784 7.79321834 18 8 C18.66 8.33 19.32 8.66 20 9 C20 10.32 20 11.64 20 13 C9 19 -2 25 -13 31 C-13 30.34 -13 29.68 -13 29 C-14.65 29.33 -16.3 29.66 -18 30 C-18.12117187 30.60328125 -18.24234375 31.2065625 -18.3671875 31.828125 C-18.53476563 32.62734375 -18.70234375 33.4265625 -18.875 34.25 C-19.03742188 35.03890625 -19.19984375 35.8278125 -19.3671875 36.640625 C-19.99150075 38.96831144 -20.84838542 40.89031952 -22 43 C-25.16115776 41.63016497 -25.9927092 41.0109362 -28 38 C-27.90098184 34.47029367 -27.10815158 33.12550925 -24.78515625 30.4296875 C-23.88667969 29.58664063 -22.98820312 28.74359375 -22.0625 27.875 C-19.34056911 25.29797766 -17.08272194 23.12408291 -15 20 C-14.34 20 -13.68 20 -13 20 C-12.72365723 19.42024414 -12.44731445 18.84048828 -12.16259766 18.24316406 C-11.03574274 16.06896352 -9.79305778 14.12022285 -8.3984375 12.109375 C-7.90859375 11.40039062 -7.41875 10.69140625 -6.9140625 9.9609375 C-6.40617187 9.23132813 -5.89828125 8.50171875 -5.375 7.75 C-4.859375 7.00492187 -4.34375 6.25984375 -3.8125 5.4921875 C-2.54395914 3.6598507 -1.27306421 1.82919561 0 0 Z " fill="#F3B62A" transform="translate(147,89)"/>
<path d="M0 0 C1 2 2 4 3 6 C3.66 4.35 4.32 2.7 5 1 C6.32 1.33 7.64 1.66 9 2 C9.495 3.98 9.495 3.98 10 6 C9.01 5.01 8.02 4.02 7 3 C6.89429688 3.73605469 6.78859375 4.47210938 6.6796875 5.23046875 C5.64186557 9.04421246 4.70603141 11.06190464 2 14 C-4.18310315 16.59062699 -10.95222959 17.35783252 -17.52294922 18.4609375 C-20.74570823 19.16228304 -23.17817513 20.3193192 -26 22 C-25.08734375 21.61908203 -25.08734375 21.61908203 -24.15625 21.23046875 C-13.48624084 17.04092104 -2.48458267 14.74450317 9 15 C8.67 17.97 8.34 20.94 8 24 C6.76866333 24.02187378 6.76866333 24.02187378 5.51245117 24.04418945 C2.41264317 24.1059195 -0.68656271 24.18018813 -3.78588867 24.26245117 C-5.76525218 24.31133318 -7.74494458 24.34626713 -9.72460938 24.38085938 C-16.78724066 24.57754025 -23.09124175 25.20583603 -29.8347168 27.36791992 C-32 28 -32 28 -35 28 C-34.859375 25.75 -34.859375 25.75 -34 23 C-24.71363242 15.29056276 -12.55282414 10.95537362 -1 8 C-0.67 5.36 -0.34 2.72 0 0 Z " fill="#FBF4D8" transform="translate(124,73)"/>
<path d="M0 0 C1.1446875 0.3403125 1.1446875 0.3403125 2.3125 0.6875 C1.81418276 4.37504757 1.21182357 6.29240662 -1.6875 8.6875 C-0.6975 9.0175 0.2925 9.3475 1.3125 9.6875 C1.9725 8.3675 2.6325 7.0475 3.3125 5.6875 C4.570625 5.666875 5.82875 5.64625 7.125 5.625 C7.83269531 5.61339844 8.54039063 5.60179687 9.26953125 5.58984375 C11.3125 5.6875 11.3125 5.6875 14.3125 6.6875 C15.99954193 5.38004251 17.66610035 4.04577971 19.3125 2.6875 C20.3025 2.6875 21.2925 2.6875 22.3125 2.6875 C22.8075 4.1725 22.8075 4.1725 23.3125 5.6875 C24.09625 5.0275 24.88 4.3675 25.6875 3.6875 C28.3125 1.6875 28.3125 1.6875 30.3125 1.6875 C30.8075 3.6675 30.8075 3.6675 31.3125 5.6875 C32.6325 5.3575 33.9525 5.0275 35.3125 4.6875 C35.8075 5.6775 35.8075 5.6775 36.3125 6.6875 C34.0025 7.3475 31.6925 8.0075 29.3125 8.6875 C29.3125 7.0375 29.3125 5.3875 29.3125 3.6875 C28.3225 4.6775 27.3325 5.6675 26.3125 6.6875 C26.8075 8.1725 26.8075 8.1725 27.3125 9.6875 C29.6225 9.6875 31.9325 9.6875 34.3125 9.6875 C31.3125 11.6875 31.3125 11.6875 29.3125 11.6875 C28.9825 12.6775 28.6525 13.6675 28.3125 14.6875 C26.25 15.375 26.25 15.375 24.3125 15.6875 C23.8175 13.2125 23.8175 13.2125 23.3125 10.6875 C22.44625 11.6775 22.44625 11.6775 21.5625 12.6875 C19.3125 14.6875 19.3125 14.6875 15.3125 14.6875 C15.3125 13.6975 15.3125 12.7075 15.3125 11.6875 C14.3225 11.6875 13.3325 11.6875 12.3125 11.6875 C12.3125 11.0275 12.3125 10.3675 12.3125 9.6875 C10.641875 9.9659375 10.641875 9.9659375 8.9375 10.25 C5.3125 10.6875 5.3125 10.6875 3.3125 9.6875 C3.3125 10.6775 3.3125 11.6675 3.3125 12.6875 C0.18598943 14.54024701 -2.05923105 15.14103362 -5.6875 14.6875 C-8 13.1875 -8 13.1875 -9.6875 11.6875 C-8.74706622 6.60915757 -5.90092228 -0.68615375 0 0 Z " fill="#918EAF" transform="translate(43.6875,175.3125)"/>
<path d="M0 0 C0.99 0.99 1.98 1.98 3 3 C3.5775 2.690625 4.155 2.38125 4.75 2.0625 C6.84294184 1.07416636 8.74535275 0.4831387 11 0 C11.66 2.31 12.32 4.62 13 7 C13.99 6.67 14.98 6.34 16 6 C16.75390625 7.609375 16.75390625 7.609375 17 10 C15.73415822 12.29936436 14.51088857 14.18508188 12.9375 16.25 C12.55400391 16.80429688 12.17050781 17.35859375 11.77539062 17.9296875 C10.58984375 19.515625 10.58984375 19.515625 8 22 C4.69140625 22.359375 4.69140625 22.359375 2 22 C1.20046862 18.71303767 0.90341064 17.28976808 2 14 C-8.98266775 14.33844893 -19.57580325 15.7789758 -29.74609375 20.19140625 C-32 21 -32 21 -35 20 C-28.4939572 16.83138834 -22.67998155 14.85897618 -15.55908203 13.77539062 C-7.77449488 12.86848614 -7.77449488 12.86848614 -1.89453125 8.3046875 C-0.8963635 5.48675544 -0.27157235 2.9719238 0 0 Z " fill="#F3C42D" transform="translate(130,75)"/>
<path d="M0 0 C0.33 0.66 0.66 1.32 1 2 C1.99 2 2.98 2 4 2 C4 3.98 4 5.96 4 8 C3.34 8 2.68 8 2 8 C0.52255589 16.93333742 0.52255589 16.93333742 4 25 C11.66341615 27.55447205 19.71517208 26.09913048 27.375 24.1875 C28.04039795 24.0222583 28.7057959 23.8570166 29.39135742 23.68676758 C33.55676251 22.57546993 37.19376491 21.00183834 41 19 C41.99 18.67 42.98 18.34 44 18 C44.969375 17.649375 45.93875 17.29875 46.9375 16.9375 C50 16 50 16 54 16 C54 15.34 54 14.68 54 14 C55.32 14.33 56.64 14.66 58 15 C58 15.66 58 16.32 58 17 C54.24084906 19.9103104 50.46439803 20.6775467 45.890625 21.47265625 C45.26671875 21.64667969 44.6428125 21.82070312 44 22 C43.67 22.66 43.34 23.32 43 24 C40.64821465 24.95198373 38.34737482 25.78735376 35.9375 26.5625 C35.24793213 26.78574951 34.55836426 27.00899902 33.84790039 27.23901367 C25.02416485 30.02112237 12.57602925 32.56735389 3.71875 29.109375 C0.93446864 27.31224794 -0.33080857 25.92108501 -2 23 C-2.80802565 16.801852 -2.02731885 10.88098233 -0.4375 4.875 C0.11361481 2.8339736 0.11361481 2.8339736 0 0 Z " fill="#B4B4B4" transform="translate(28,127)"/>
<path d="M0 0 C0.99 0 1.98 0 3 0 C3.02548309 7.36490129 3.04292255 14.72979108 3.05493164 22.09472656 C3.05994138 24.59700953 3.06675101 27.0992896 3.07543945 29.6015625 C3.08765273 33.21094481 3.09326206 36.8202882 3.09765625 40.4296875 C3.10281754 41.53738495 3.10797882 42.6450824 3.11329651 43.78634644 C3.11375724 50.25437756 2.79198413 56.57937778 2 63 C1.67 63 1.34 63 1 63 C-1.49781091 49.67338047 -1.0286323 36.55920473 -0.625 23.0625 C-0.56662291 20.81838735 -0.50932314 18.5742464 -0.453125 16.33007812 C-0.31449127 10.88633045 -0.16260392 5.44308172 0 0 Z " fill="#B7B9B8" transform="translate(101,0)"/>
<path d="M0 0 C-0.99 2.31 -1.98 4.62 -3 7 C-3.68513672 7.01981934 -4.37027344 7.03963867 -5.07617188 7.06005859 C-8.21779611 7.15604678 -11.3588215 7.26542401 -14.5 7.375 C-15.57765625 7.4059375 -16.6553125 7.436875 -17.765625 7.46875 C-22.49759956 7.64187102 -26.95221976 7.83786909 -31.53125 9.1015625 C-34.8946838 9.97272215 -35.86675675 9.97720812 -39 9 C-26.2908394 3.35757094 -14.06288234 -0.28032324 0 0 Z " fill="#FDFCF5" transform="translate(133,88)"/>
<path d="M0 0 C4.10958767 1.45044271 7.43258745 3.51110752 11 6 C10.34 7.98 9.68 9.96 9 12 C9.33 11.67 9.66 11.34 10 11 C12.4375 10.8125 12.4375 10.8125 15 11 C17 13 17 13 17 17 C13.37 16.34 9.74 15.68 6 15 C6.66 16.32 7.32 17.64 8 19 C4.72199032 20.03023161 3.38596452 20.17153978 0.1875 18.75 C-0.8953125 17.88375 -0.8953125 17.88375 -2 17 C-2 14 -2 14 0 12 C-1.98 10.35 -3.96 8.7 -6 7 C-5.34 6.67 -4.68 6.34 -4 6 C-3.113125 6.680625 -2.22625 7.36125 -1.3125 8.0625 C1.76606265 10.26529572 1.76606265 10.26529572 4.8125 9.875 C7.17041625 9.21280404 7.17041625 9.21280404 8 7 C7.4225 6.66226563 6.845 6.32453125 6.25 5.9765625 C5.13625 5.30753906 5.13625 5.30753906 4 4.625 C3.2575 4.18414062 2.515 3.74328125 1.75 3.2890625 C1.1725 2.86367187 0.595 2.43828125 0 2 C0 1.34 0 0.68 0 0 Z " fill="#A88F79" transform="translate(87,126)"/>
<path d="M0 0 C14.1482531 2.14367471 26.12545682 7.20525797 38 15 C36 16 36 16 32.6484375 14.890625 C31.22241432 14.34778889 29.79803752 13.80061546 28.375 13.25 C21.01701454 10.48265804 13.98141845 8.93201091 6.1953125 7.93359375 C3 7 3 7 1.0546875 4.53515625 C0 2 0 2 0 0 Z " fill="#332A5E" transform="translate(44,81)"/>
<path d="M0 0 C0.33 0 0.66 0 1 0 C1.33 8.25 1.66 16.5 2 25 C3.32 24.01 4.64 23.02 6 22 C8.01464844 21.7512207 8.01464844 21.7512207 10.109375 21.92578125 C11.24052734 22.00795898 11.24052734 22.00795898 12.39453125 22.09179688 C13.17183594 22.16462891 13.94914062 22.23746094 14.75 22.3125 C15.54277344 22.37373047 16.33554688 22.43496094 17.15234375 22.49804688 C19.10275869 22.65079021 21.05159555 22.82345244 23 23 C23 23.33 23 23.66 23 24 C17.72 24 12.44 24 7 24 C7.04125 26.10375 7.0825 28.2075 7.125 30.375 C7.1953125 33.9609375 7.1953125 33.9609375 7 37 C6.34 37.66 5.68 38.32 5 39 C4.01 39 3.02 39 2 39 C-0.52561648 35.21157527 -0.25391573 32.21466671 -0.1953125 27.83203125 C-0.1924826 27.03721848 -0.18965271 26.2424057 -0.18673706 25.42350769 C-0.17554705 22.88635162 -0.15044491 20.34954928 -0.125 17.8125 C-0.11496866 16.09180198 -0.10584308 14.37109841 -0.09765625 12.65039062 C-0.07561161 8.43345757 -0.04109006 4.21678875 0 0 Z " fill="#CFCC65" transform="translate(76,16)"/>
<path d="M0 0 C0.66 0 1.32 0 2 0 C2 21.12 2 42.24 2 64 C1.34 64 0.68 64 0 64 C0 61.03 0 58.06 0 55 C-0.99 54.67 -1.98 54.34 -3 54 C-3 53.34 -3 52.68 -3 52 C-2.01 52 -1.02 52 0 52 C0 34.84 0 17.68 0 0 Z " fill="#ABACAC" transform="translate(147,0)"/>
<path d="M0 0 C1.32 0.33 2.64 0.66 4 1 C4 1.66 4 2.32 4 3 C0.24084906 5.9103104 -3.53560197 6.6775467 -8.109375 7.47265625 C-8.73328125 7.64667969 -9.3571875 7.82070312 -10 8 C-10.33 8.66 -10.66 9.32 -11 10 C-13.39344237 11.00046481 -15.73230656 11.87065365 -18.1875 12.6875 C-18.84814453 12.92533203 -19.50878906 13.16316406 -20.18945312 13.40820312 C-24.51283421 14.86355648 -27.58232522 15.13361794 -32 14 C-29 12 -29 12 -26 12 C-26 11.34 -26 10.68 -26 10 C-25.14535156 9.73445312 -24.29070313 9.46890625 -23.41015625 9.1953125 C-22.30542969 8.84210938 -21.20070313 8.48890625 -20.0625 8.125 C-18.96035156 7.77695313 -17.85820313 7.42890625 -16.72265625 7.0703125 C-13.87121196 6.29975705 -13.87121196 6.29975705 -13 4 C-10.67884289 3.59038404 -8.34165499 3.26871451 -6 3 C-3.99902542 2.6725678 -1.99866686 2.34123581 0 2 C0 1.34 0 0.68 0 0 Z " fill="#B0AEAB" transform="translate(82,141)"/>
<path d="M0 0 C0.66 0 1.32 0 2 0 C2.33 1.32 2.66 2.64 3 4 C4.0725 3.835 5.145 3.67 6.25 3.5 C10 3 10 3 14 3 C14.66 2.34 15.32 1.68 16 1 C19.53571429 1.53571429 19.53571429 1.53571429 21 3 C21.04063832 4.66617115 21.042721 6.33388095 21 8 C21.66 8.33 22.32 8.66 23 9 C22.67 9.66 22.34 10.32 22 11 C17.25 10.25 17.25 10.25 15 8 C14.236875 8.37125 13.47375 8.7425 12.6875 9.125 C11.800625 9.41375 10.91375 9.7025 10 10 C9.01 9.34 8.02 8.68 7 8 C7 7.34 7 6.68 7 6 C4.36 6.33 1.72 6.66 -1 7 C-1.625 4.625 -1.625 4.625 -2 2 C-1.34 1.34 -0.68 0.68 0 0 Z " fill="#595588" transform="translate(71,179)"/>
<path d="M0 0 C0.33 1.32 0.66 2.64 1 4 C2.32 3.67 3.64 3.34 5 3 C5.33 3.66 5.66 4.32 6 5 C3.69 5.66 1.38 6.32 -1 7 C-1 5.35 -1 3.7 -1 2 C-1.99 2.99 -2.98 3.98 -4 5 C-3.67 5.99 -3.34 6.98 -3 8 C-0.69 8 1.62 8 4 8 C1 10 1 10 -1 10 C-1.33 10.99 -1.66 11.98 -2 13 C-4.0625 13.6875 -4.0625 13.6875 -6 14 C-6.33 12.35 -6.66 10.7 -7 9 C-7.78375 9.515625 -8.5675 10.03125 -9.375 10.5625 C-10.24125 11.036875 -11.1075 11.51125 -12 12 C-12.66 11.67 -13.32 11.34 -14 11 C-13.67 9.68 -13.34 8.36 -13 7 C-13.66 6.67 -14.32 6.34 -15 6 C-13.1875 3.5 -13.1875 3.5 -11 1 C-10.01 1 -9.02 1 -8 1 C-7.67 1.99 -7.34 2.98 -7 4 C-6.21625 3.34 -5.4325 2.68 -4.625 2 C-2 0 -2 0 0 0 Z " fill="#7A779F" transform="translate(74,177)"/>
<path d="M0 0 C1.29361816 3.88085449 0.38965684 5.00769542 -1.25 8.6875 C-3.31405198 13.41929604 -5.22862401 18.15202362 -7 23 C-10.16115776 21.63016497 -10.9927092 21.0109362 -13 18 C-12.90098184 14.47029367 -12.10815158 13.12550925 -9.78515625 10.4296875 C-8.88667969 9.58664063 -7.98820312 8.74359375 -7.0625 7.875 C-4.34056911 5.29797766 -2.08272194 3.12408291 0 0 Z " fill="#FAF6EF" transform="translate(132,109)"/>
<path d="M0 0 C0.99 0 1.98 0 3 0 C3.25 6.625 3.25 6.625 1 10 C0.34 10 -0.32 10 -1 10 C-1.33 12.64 -1.66 15.28 -2 18 C-1.34 18.33 -0.68 18.66 0 19 C-1.375 20.5 -1.375 20.5 -3 22 C-3.66 22 -4.32 22 -5 22 C-4.505 17.545 -4.505 17.545 -4 13 C-4.66 12.67 -5.32 12.34 -6 12 C-5.34 10.68 -4.68 9.36 -4 8 C-6.97 7.505 -6.97 7.505 -10 7 C-9.67 5.68 -9.34 4.36 -9 3 C-6.36 3 -3.72 3 -1 3 C-0.67 2.01 -0.34 1.02 0 0 Z " fill="#595588" transform="translate(106,169)"/>
<path d="M0 0 C1.9375 0.125 1.9375 0.125 4 1 C5.25 3.5625 5.25 3.5625 6 6 C6.66 5.34 7.32 4.68 8 4 C10.625 3.375 10.625 3.375 13 3 C13 5.64 13 8.28 13 11 C11.35 11.66 9.7 12.32 8 13 C7.67 12.01 7.34 11.02 7 10 C6.01 10.66 5.02 11.32 4 12 C1.3125 12.125 1.3125 12.125 -1 12 C-0.67 10.35 -0.34 8.7 0 7 C0.66 7 1.32 7 2 7 C1.42655063 4.13275314 1.1385485 3.1385485 -1 1 C-0.67 0.67 -0.34 0.34 0 0 Z " fill="#5A5589" transform="translate(114,179)"/>
<path d="M0 0 C2.37528151 0.14203337 4.75015251 0.28851612 7.125 0.4375 C7.79015625 0.47681641 8.4553125 0.51613281 9.140625 0.55664062 C13.15018817 0.812152 17.04994196 1.26782413 21 2 C20.67 2.99 20.34 3.98 20 5 C20.66 5.66 21.32 6.32 22 7 C15.4 7 8.8 7 2 7 C0 3 0 3 0 0 Z " fill="#352A5E" transform="translate(40,89)"/>
<path d="M0 0 C0.66 0.53625 1.32 1.0725 2 1.625 C5.58824303 3.26961139 6.85614638 2.54609243 10.5078125 1.53369141 C15.59173934 0.44498999 20.81882326 0.51743785 26 0.375 C27.15628906 0.33632812 28.31257813 0.29765625 29.50390625 0.2578125 C32.3357848 0.16419668 35.16766794 0.07846325 38 0 C38.495 1.485 38.495 1.485 39 3 C38.17910889 3.01458252 37.35821777 3.02916504 36.51245117 3.04418945 C33.41264317 3.1059195 30.31343729 3.18018813 27.21411133 3.26245117 C25.23474782 3.31133318 23.25505542 3.34626713 21.27539062 3.38085938 C14.21275934 3.57754025 7.90875825 4.20583603 1.1652832 6.36791992 C-1 7 -1 7 -4 7 C-3.6875 4.625 -3.6875 4.625 -3 2 C-2.01 1.34 -1.02 0.68 0 0 Z " fill="#F8E3AA" transform="translate(93,94)"/>
<path d="M0 0 C7.87590087 1.05572574 15.23475826 2.95207588 22.79296875 5.37890625 C23.73052002 5.67079834 24.66807129 5.96269043 25.6340332 6.26342773 C26.50761475 6.55677002 27.38119629 6.8501123 28.28125 7.15234375 C29.06669189 7.41192871 29.85213379 7.67151367 30.66137695 7.93896484 C32.48046875 9.00390625 32.48046875 9.00390625 33.30541992 10.99462891 C33.48046875 13.00390625 33.48046875 13.00390625 32.48046875 15.00390625 C31.82046875 15.00390625 31.16046875 15.00390625 30.48046875 15.00390625 C30.48046875 14.34390625 30.48046875 13.68390625 30.48046875 13.00390625 C29.23330078 12.82214844 29.23330078 12.82214844 27.9609375 12.63671875 C26.33091797 12.38535156 26.33091797 12.38535156 24.66796875 12.12890625 C23.58902344 11.96648437 22.51007813 11.8040625 21.3984375 11.63671875 C18.48046875 11.00390625 18.48046875 11.00390625 15.48046875 9.00390625 C18.45046875 9.00390625 21.42046875 9.00390625 24.48046875 9.00390625 C14.81457654 5.45703824 5.77091195 3.06624784 -4.51953125 2.00390625 C-2.51953125 0.00390625 -2.51953125 0.00390625 0 0 Z " fill="#A07A3A" transform="translate(51.51953125,87.99609375)"/>
<path d="M0 0 C0.33 0 0.66 0 1 0 C1.00142502 0.65510559 1.00285004 1.31021118 1.00431824 1.98516846 C1.02399223 8.79864466 1.07821682 15.6112222 1.15258789 22.42431641 C1.17579668 24.96754511 1.19017031 27.51087032 1.19555664 30.05419922 C1.20482459 33.70862168 1.24577186 37.36152007 1.29296875 41.015625 C1.2890361 42.15429016 1.28510345 43.29295532 1.28105164 44.46612549 C1.19365578 50.6482999 1.19365578 50.6482999 4.4934082 55.54589844 C5.3205835 56.02575195 6.14775879 56.50560547 7 57 C7.8125 60.25 7.8125 60.25 8 63 C5.37812506 61.95125002 4.20628639 61.35068687 2.75 58.875 C2.5025 58.25625 2.255 57.6375 2 57 C1.67 59.31 1.34 61.62 1 64 C0.67 64 0.34 64 0 64 C0 42.88 0 21.76 0 0 Z " fill="#C8C8C9" transform="translate(149,0)"/>
<path d="M0 0 C0.7425 0.2475 1.485 0.495 2.25 0.75 C1.87403791 3.53211944 1.57681541 5.3379284 -0.1875 7.5625 C-1.75 8.75 -1.75 8.75 -3.75 8.75 C-2.76 10.07 -1.77 11.39 -0.75 12.75 C-5.30384615 13.11923077 -5.30384615 13.11923077 -7.5625 11.25 C-7.954375 10.755 -8.34625 10.26 -8.75 9.75 C-5.94354839 -0.54032258 -5.94354839 -0.54032258 0 0 Z " fill="#686493" transform="translate(43.75,175.25)"/>
<path d="M0 0 C3.465 1.485 3.465 1.485 7 3 C7 3.99 7 4.98 7 6 C5.35 5.34 3.7 4.68 2 4 C1.51080078 4.86625 1.51080078 4.86625 1.01171875 5.75 C0.35623047 6.86375 0.35623047 6.86375 -0.3125 8 C-0.74175781 8.7425 -1.17101562 9.485 -1.61328125 10.25 C-2.07089844 10.8275 -2.52851563 11.405 -3 12 C-3.99 12 -4.98 12 -6 12 C-8.00319381 13.78577046 -9.84334566 15.56304305 -11.6875 17.5 C-12.19861328 18.02464844 -12.70972656 18.54929687 -13.23632812 19.08984375 C-14.49772708 20.38660904 -15.74977212 21.69246117 -17 23 C-17 20 -17 20 -15.50390625 18.24609375 C-14.86324219 17.64925781 -14.22257813 17.05242187 -13.5625 16.4375 C-10.9103837 13.99710571 -10.9103837 13.99710571 -9 11 C-8.34 11 -7.68 11 -7 11 C-6.773125 10.484375 -6.54625 9.96875 -6.3125 9.4375 C-4.5024447 6.07596873 -2.26003596 3.07088856 0 0 Z " fill="#B1AEA6" transform="translate(145,86)"/>
<path d="M0 0 C2.39489543 0.74324341 3.70777616 1.47057354 4.93359375 3.69140625 C5.67219923 5.44073501 6.34049685 7.21934149 7 9 C-1.19256018 9.63019694 -1.19256018 9.63019694 -4.5625 7 C-5.2740625 6.01 -5.2740625 6.01 -6 5 C-4.02 3.35 -2.04 1.7 0 0 Z " fill="#2D1D54" transform="translate(116,125)"/>
<path d="M0 0 C3.96 0 7.92 0 12 0 C12 1.98 12 3.96 12 6 C8.7 6 5.4 6 2 6 C2 4.68 2 3.36 2 2 C1.34 2 0.68 2 0 2 C0 1.34 0 0.68 0 0 Z M4 2 C4.33 2.66 4.66 3.32 5 4 C5.33 3.34 5.66 2.68 6 2 C5.34 2 4.68 2 4 2 Z " fill="#7A779F" transform="translate(139,170)"/>
<path d="M0 0 C0.66 0 1.32 0 2 0 C2.33 1.32 2.66 2.64 3 4 C4.98 3.67 6.96 3.34 9 3 C9.33 3.66 9.66 4.32 10 5 C12.01669827 6.13350534 12.01669827 6.13350534 14 7 C13.01 7.99 12.02 8.98 11 10 C9.68 9.34 8.36 8.68 7 8 C7 7.34 7 6.68 7 6 C4.36 6.33 1.72 6.66 -1 7 C-1.625 4.625 -1.625 4.625 -2 2 C-1.34 1.34 -0.68 0.68 0 0 Z " fill="#403B77" transform="translate(71,179)"/>
<path d="M0 0 C3 1 3 1 3 1 Z M-19 1 C-12.73 1 -6.46 1 0 1 C0 1.99 0 2.98 0 4 C-3.83724172 4.90413673 -7.37502274 5.10576898 -11.3125 5.0625 C-12.38113281 5.05347656 -13.44976562 5.04445312 -14.55078125 5.03515625 C-15.35902344 5.02355469 -16.16726562 5.01195312 -17 5 C-17 4.34 -17 3.68 -17 3 C-17.66 3 -18.32 3 -19 3 C-19 2.34 -19 1.68 -19 1 Z " fill="#B6B6B6" transform="translate(53,152)"/>
<path d="M0 0 C0.33 0.66 0.66 1.32 1 2 C-0.9490625 2.1546875 -0.9490625 2.1546875 -2.9375 2.3125 C-6.28751047 2.66622781 -9.06485812 3.31813895 -12.1875 4.5625 C-18.27656776 6.79443587 -24.6099574 6.24542127 -31 6 C-31 5.67 -31 5.34 -31 5 C-30.16597656 4.97421875 -29.33195312 4.9484375 -28.47265625 4.921875 C-21.90642709 4.59093103 -16.98216593 3.85551477 -11.14453125 0.85546875 C-7.41861065 -0.63082745 -3.95926061 -0.25138163 0 0 Z " fill="#E7BE6B" transform="translate(101,109)"/>
<path d="M0 0 C1.65 0 3.3 0 5 0 C4.649375 0.7425 4.29875 1.485 3.9375 2.25 C2.95490707 5.1322726 2.9673198 6.21176345 4 9 C3.34 8.67 2.68 8.34 2 8 C0.35 9.65 -1.3 11.3 -3 13 C-3.66 12.67 -4.32 12.34 -5 12 C-5 11.01 -5 10.02 -5 9 C-3.03814584 7.28859531 -1.03697617 5.62126675 1 4 C1.33 3.34 1.66 2.68 2 2 C1.34 1.34 0.68 0.68 0 0 Z " fill="#6D6A96" transform="translate(98,176)"/>
<path d="M0 0 C-0.33 3.63 -0.66 7.26 -1 11 C-0.34 11.33 0.32 11.66 1 12 C-0.375 13.5 -0.375 13.5 -2 15 C-2.66 15 -3.32 15 -4 15 C-3.67 12.03 -3.34 9.06 -3 6 C-3.66 5.67 -4.32 5.34 -5 5 C-2.74193548 0 -2.74193548 0 0 0 Z " fill="#2E296B" transform="translate(105,176)"/>
<path d="M0 0 C2.29648649 2.5614657 3 3.47967572 3 7 C-3.52307692 7.36923077 -3.52307692 7.36923077 -5.9375 5.5 C-6.4634375 4.7575 -6.4634375 4.7575 -7 4 C-2.25 0 -2.25 0 0 0 Z " fill="#2D1F57" transform="translate(109,131)"/>
<path d="M0 0 C0.33 0.99 0.66 1.98 1 3 C0.41089844 3.60328125 -0.17820312 4.2065625 -0.78515625 4.828125 C-1.53667969 5.62734375 -2.28820312 6.4265625 -3.0625 7.25 C-3.81660156 8.03890625 -4.57070312 8.8278125 -5.34765625 9.640625 C-7.25059728 11.81942943 -7.25059728 11.81942943 -6.80859375 14.171875 C-6.23772009 15.46254588 -5.63114627 16.73770747 -5 18 C-6.32 17.34 -7.64 16.68 -9 16 C-9.60987167 12.60214357 -9.35450669 10.56386103 -7.51171875 7.6328125 C-2.64157997 1.32078999 -2.64157997 1.32078999 0 0 Z " fill="#F4D477" transform="translate(15,82)"/>
<path d="M0 0 C2 2 2 2 2 6 C-1.3 5.34 -4.6 4.68 -8 4 C-8 3.34 -8 2.68 -8 2 C-4.77626323 -0.14915785 -3.73296326 -0.38286803 0 0 Z " fill="#31245B" transform="translate(102,137)"/>
<path d="M0 0 C3.40312738 1.05875074 6.01353231 2.00902154 9 4 C8.125 8.875 8.125 8.875 7 10 C5.33382885 10.04063832 3.66611905 10.042721 2 10 C2.57344937 7.13275314 2.8614515 6.1385485 5 4 C4.175 3.525625 3.35 3.05125 2.5 2.5625 C1.675 2.046875 0.85 1.53125 0 1 C0 0.67 0 0.34 0 0 Z " fill="#917D8F" transform="translate(85,166)"/>
<path d="M0 0 C1.32 0.33 2.64 0.66 4 1 C4 1.66 4 2.32 4 3 C-0.15487723 6.24599784 -3.90551202 6.56826373 -9 7 C-8 4 -8 4 -6.1875 2.8125 C-4 2 -4 2 0 2 C0 1.34 0 0.68 0 0 Z " fill="#ADA397" transform="translate(82,141)"/>
<path d="M0 0 C4 2 4 2 7 4 C7.6875 7.125 7.6875 7.125 8 10 C5.37812506 8.95125002 4.20628639 8.35068687 2.75 5.875 C2.5025 5.25625 2.255 4.6375 2 4 C1.67 6.31 1.34 8.62 1 11 C0.67 11 0.34 11 0 11 C0 7.37 0 3.74 0 0 Z " fill="#BDBFC0" transform="translate(149,53)"/>
<path d="M0 0 C0.433125 0.66 0.86625 1.32 1.3125 2 C2.1478125 2.99 2.1478125 2.99 3 4 C3.99 4 4.98 4 6 4 C6 3.01 6 2.02 6 1 C7.65 1.33 9.3 1.66 11 2 C10.67 3.32 10.34 4.64 10 6 C3.6 7.35384615 3.6 7.35384615 0.5625 5.5625 C0.046875 5.046875 -0.46875 4.53125 -1 4 C-0.67 2.68 -0.34 1.36 0 0 Z " fill="#74719B" transform="translate(35,183)"/>
<path d="M0 0 C2.4375 1.375 2.4375 1.375 3.25 4 C3.311875 4.78375 3.37375 5.5675 3.4375 6.375 C3.004375 5.715 2.57125 5.055 2.125 4.375 C1.2896875 3.385 1.2896875 3.385 0.4375 2.375 C-0.5525 2.375 -1.5425 2.375 -2.5625 2.375 C-1.9025 3.035 -1.2425 3.695 -0.5625 4.375 C-0.9375 6.5 -0.9375 6.5 -1.5625 8.375 C-1.5625 7.385 -1.5625 6.395 -1.5625 5.375 C-3.2125 5.705 -4.8625 6.035 -6.5625 6.375 C-5.96066251 4.35454558 -5.28943904 2.35388961 -4.5625 0.375 C-2.5625 -0.625 -2.5625 -0.625 0 0 Z " fill="#7B78A0" transform="translate(116.5625,177.625)"/>
<path d="M0 0 C0.99 0.33 1.98 0.66 3 1 C2.67 1.99 2.34 2.98 2 4 C2.66 4.33 3.32 4.66 4 5 C2.68 6.32 1.36 7.64 0 9 C-0.66 8.67 -1.32 8.34 -2 8 C-1.67 6.68 -1.34 5.36 -1 4 C-1.66 3.67 -2.32 3.34 -3 3 C-2.01 2.01 -1.02 1.02 0 0 Z " fill="#272266" transform="translate(62,180)"/>
<path d="M0 0 C0.33 0.66 0.66 1.32 1 2 C1.66 2 2.32 2 3 2 C3 3.32 3 4.64 3 6 C3.66 6.66 4.32 7.32 5 8 C0.44615385 8.36923077 0.44615385 8.36923077 -1.8125 6.5 C-2.204375 6.005 -2.59625 5.51 -3 5 C-2.01 3.35 -1.02 1.7 0 0 Z " fill="#292467" transform="translate(38,180)"/>
<path d="M0 0 C4.77609498 1.64178265 8.79382904 4.26546702 13 7 C11 8 11 8 8.65234375 7.36328125 C7.75644531 7.01652344 6.86054687 6.66976562 5.9375 6.3125 C4.58978516 5.81169922 4.58978516 5.81169922 3.21484375 5.30078125 C1 4 1 4 0.19140625 1.85546875 C0.12824219 1.24316406 0.06507812 0.63085938 0 0 Z " fill="#483956" transform="translate(69,89)"/>
<path d="M0 0 C6.75 0.875 6.75 0.875 9 2 C9 2.99 9 3.98 9 5 C4.545 4.01 4.545 4.01 0 3 C0 2.01 0 1.02 0 0 Z " fill="#282162" transform="translate(60,87)"/>
<path d="M0 0 C1 3 1 3 1 7 C-0.65 7.33 -2.3 7.66 -4 8 C-4.25 5.6875 -4.25 5.6875 -4 3 C-2 1.1875 -2 1.1875 0 0 Z " fill="#262065" transform="translate(126,182)"/>
<path d="M0 0 C0.33 0.66 0.66 1.32 1 2 C1.99 2 2.98 2 4 2 C4 3.98 4 5.96 4 8 C3.34 8 2.68 8 2 8 C2 8.99 2 9.98 2 11 C1.34 11 0.68 11 0 11 C0 7.37 0 3.74 0 0 Z " fill="#C3B49E" transform="translate(28,127)"/>
<path d="M0 0 C3.82990706 0.64743667 6.5283898 2.45311237 9.75 4.5625 C11.22726563 5.52349609 11.22726563 5.52349609 12.734375 6.50390625 C13.85585937 7.24447266 13.85585937 7.24447266 15 8 C14.34 8.66 13.68 9.32 13 10 C12.31292969 9.50628906 11.62585938 9.01257813 10.91796875 8.50390625 C10.01691406 7.86324219 9.11585937 7.22257812 8.1875 6.5625 C7.29417969 5.92441406 6.40085937 5.28632812 5.48046875 4.62890625 C3.02865666 2.86709732 3.02865666 2.86709732 0 2 C0 1.34 0 0.68 0 0 Z " fill="#A76F3E" transform="translate(92,118)"/>
<path d="M0 0 C0.66 0.33 1.32 0.66 2 1 C0.87672229 2.45966034 -0.24868294 3.91768364 -1.375 5.375 C-2.00148438 6.18710938 -2.62796875 6.99921875 -3.2734375 7.8359375 C-5 10 -5 10 -7 12 C-6.6257368 6.63556087 -5.0040457 4.50353999 -1 1 C-0.67 0.67 -0.34 0.34 0 0 Z " fill="#3C6FA9" transform="translate(66,6)"/>
<path d="M0 0 C0.598125 0.20625 1.19625 0.4125 1.8125 0.625 C1.8125 1.945 1.8125 3.265 1.8125 4.625 C-0.4975 4.295 -2.8075 3.965 -5.1875 3.625 C-5.1875 2.965 -5.1875 2.305 -5.1875 1.625 C-2.1875 -0.375 -2.1875 -0.375 0 0 Z " fill="#3C2651" transform="translate(92.1875,141.375)"/>
<path d="M0 0 C2.64 0 5.28 0 8 0 C8 0.99 8 1.98 8 3 C5.03 3 2.06 3 -1 3 C-0.67 2.01 -0.34 1.02 0 0 Z " fill="#585487" transform="translate(47,181)"/>
<path d="M0 0 C0.33 0.66 0.66 1.32 1 2 C1.99 2.33 2.98 2.66 4 3 C3.67 4.65 3.34 6.3 3 8 C2.34 8 1.68 8 1 8 C1.99 9.485 1.99 9.485 3 11 C2.67 11.99 2.34 12.98 2 14 C0 11 0 11 0 7 C1.5 5.25 1.5 5.25 3 4 C1.68 3.67 0.36 3.34 -1 3 C-0.67 2.01 -0.34 1.02 0 0 Z " fill="#F4CE9E" transform="translate(140,137)"/>
<path d="M0 0 C0.33 0.66 0.66 1.32 1 2 C0 3.5 0 3.5 -2 5 C-4.71846235 5.27345479 -7.25677199 5.13491285 -10 5 C-10 4.34 -10 3.68 -10 3 C-5.05 1.515 -5.05 1.515 0 0 Z " fill="#F2CF46" transform="translate(50,76)"/>
<path d="M0 0 C-3 2 -3 2 -5 2 C-5.33 2.99 -5.66 3.98 -6 5 C-6.99 5.33 -7.98 5.66 -9 6 C-9 4.35 -9 2.7 -9 1 C-6.04335481 -0.4783226 -3.25770263 -0.06032783 0 0 Z " fill="#5E5A8C" transform="translate(78,185)"/>
<path d="M0 0 C1.79240663 0.11389875 3.58394835 0.24147687 5.375 0.375 C6.87160156 0.47941406 6.87160156 0.47941406 8.3984375 0.5859375 C11 1 11 1 13 3 C9.37 3.33 5.74 3.66 2 4 C2 3.34 2 2.68 2 2 C1.34 2 0.68 2 0 2 C0 1.34 0 0.68 0 0 Z " fill="#A9A9A9" transform="translate(34,153)"/>
<path d="M0 0 C2.04119788 1.61594832 4.04072937 3.2856382 6 5 C6 5.66 6 6.32 6 7 C6.66 7 7.32 7 8 7 C8 7.66 8 8.32 8 9 C5.125 8.3125 5.125 8.3125 2 7 C0.62972073 4.50858315 0 2.83598698 0 0 Z " fill="#BBBBBB" transform="translate(28,148)"/>
<path d="M0 0 C3.465 1.485 3.465 1.485 7 3 C7 3.99 7 4.98 7 6 C6.29875 5.62875 5.5975 5.2575 4.875 4.875 C1.23556349 3.76734541 -0.55700411 4.55874591 -4 6 C-2.68 4.02 -1.36 2.04 0 0 Z " fill="#CBBC8C" transform="translate(145,86)"/>
<path d="M0 0 C1.98 0 3.96 0 6 0 C6 0.66 6 1.32 6 2 C5.67 2.33 5.34 2.66 5 3 C5.33 3.66 5.66 4.32 6 5 C4.68 5.33 3.36 5.66 2 6 C2 4.68 2 3.36 2 2 C1.34 2 0.68 2 0 2 C0 1.34 0 0.68 0 0 Z " fill="#8F8CAC" transform="translate(139,170)"/>
<path d="M0 0 C0.33 0.66 0.66 1.32 1 2 C0.11248047 2.09087891 0.11248047 2.09087891 -0.79296875 2.18359375 C-4.90978208 2.62012371 -8.95544533 3.08671346 -13 4 C-9.41420832 -0.98892755 -5.61771415 -0.43213186 0 0 Z " fill="#D8A238" transform="translate(101,109)"/>
<path d="M0 0 C0.66 0.33 1.32 0.66 2 1 C1.98839844 1.62648437 1.97679688 2.25296875 1.96484375 2.8984375 C1.95582031 3.71570312 1.94679688 4.53296875 1.9375 5.375 C1.92589844 6.18710937 1.91429688 6.99921875 1.90234375 7.8359375 C1.85533666 10.04937142 1.85533666 10.04937142 3 12 C2.01 11.67 1.02 11.34 0 11 C-0.84098656 6.98195309 -1.05404945 3.98196457 0 0 Z " fill="#E4DA5C" transform="translate(99,42)"/>
<path d="M0 0 C0.33 0.66 0.66 1.32 1 2 C1.66 2.33 2.32 2.66 3 3 C1.68 3.99 0.36 4.98 -1 6 C-1.66 5.67 -2.32 5.34 -3 5 C-3 4.01 -3 3.02 -3 2 C-2.01 1.34 -1.02 0.68 0 0 Z " fill="#7F7CA3" transform="translate(96,183)"/>
<path d="M0 0 C0.103125 0.639375 0.20625 1.27875 0.3125 1.9375 C0.539375 2.618125 0.76625 3.29875 1 4 C1.99 4.33 2.98 4.66 4 5 C2.625 6.5 2.625 6.5 1 8 C0.34 8 -0.32 8 -1 8 C-1.125 2.25 -1.125 2.25 0 0 Z " fill="#251F65" transform="translate(102,183)"/>
<path d="M0 0 C0.66 0.33 1.32 0.66 2 1 C2.33 1.99 2.66 2.98 3 4 C3.66 4.66 4.32 5.32 5 6 C3.35 6 1.7 6 0 6 C0 5.34 0 4.68 0 4 C-0.66 4 -1.32 4 -2 4 C-1.34 2.68 -0.68 1.36 0 0 Z " fill="#251F65" transform="translate(132,182)"/>
<path d="M0 0 C0.99 0.33 1.98 0.66 3 1 C2.25 6.75 2.25 6.75 0 9 C0 6.03 0 3.06 0 0 Z " fill="#B0B0B0" transform="translate(154,62)"/>
<path d="M0 0 C0.33 0.99 0.66 1.98 1 3 C-0.65 4.32 -2.3 5.64 -4 7 C-3.6875 4.625 -3.6875 4.625 -3 2 C-2.01 1.34 -1.02 0.68 0 0 Z " fill="#F3CD4E" transform="translate(15,82)"/>
<path d="M0 0 C0.66 0 1.32 0 2 0 C1.625 2.9375 1.625 2.9375 1 6 C0.01 6.495 0.01 6.495 -1 7 C-1.625 4.625 -1.625 4.625 -2 2 C-1.34 1.34 -0.68 0.68 0 0 Z " fill="#221C62" transform="translate(71,179)"/>
<path d="M0 0 C3.93673644 1.31224548 6.22719294 2.91910327 9 6 C4.75177626 5.52797514 2.80010291 3.03344482 0 0 Z " fill="#BA7935" transform="translate(81,132)"/>
</svg>
